<?xml version="1.0" encoding="UTF-8"?>
<svg id="Bonhomme_reaction" data-name="Bonhomme reaction" xmlns="http://www.w3.org/2000/svg" xmlns:xlink="http://www.w3.org/1999/xlink" viewBox="0 0 415 553">
  <defs>
    <style>
      .cls-1 {
        fill: #fff;
      }

      .cls-2 {
        fill: #7ac298;
      }

      .cls-3 {
        fill: #42a883;
      }

      .cls-4 {
        clip-path: url(#clippath);
      }
    </style>
    <clipPath id="clippath">
      <path d="M234.53,400.26c0,23.02-12.39,41.68-27.67,41.68s-27.67-18.66-27.67-41.68,11.21,0,26.49,0,28.85-23.02,28.85,0Z"/>
    </clipPath>
  </defs>
  <path class="cls-2" d="M415,203.3c-55.41-17.41-126.67-27.88-204.43-27.88S56.24,186.69,0,205.28v181.4H0v166.32h415v-135.88h0v-213.82Z"/>
  <g>
    <g>
      <g>
        <path class="cls-1" d="M149.9,340.95c1.52-17.23,11.65-30.56,23.94-30.56s22.43,13.33,23.94,30.56c.13,1.47.22,2.95.22,4.47,0,19.35-10.82,35.04-24.16,35.04s-24.16-15.69-24.16-35.04c0-1.52.09-3.01.22-4.47Z"/>
        <path d="M173.85,319.27c3.47,0,6.69,1.6,9.38,4.32-3.42,1.67-5.78,5.17-5.78,9.23,0,5.68,4.6,10.28,10.28,10.28,1.07,0,2.1-.16,3.07-.47.06.92.1,1.84.1,2.79,0,14.45-7.64,26.16-17.06,26.16s-17.06-11.71-17.06-26.16,7.64-26.16,17.06-26.16Z"/>
      </g>
      <g>
        <path class="cls-1" d="M217.21,340.95c1.52-17.23,11.65-30.56,23.94-30.56s22.43,13.33,23.94,30.56c.13,1.47.22,2.95.22,4.47,0,19.35-10.82,35.04-24.16,35.04s-24.16-15.69-24.16-35.04c0-1.52.09-3.01.22-4.47Z"/>
        <path d="M241.15,319.27c3.47,0,6.69,1.6,9.38,4.32-3.42,1.67-5.78,5.17-5.78,9.23,0,5.68,4.6,10.28,10.28,10.28,1.07,0,2.1-.16,3.07-.47.06.92.1,1.84.1,2.79,0,14.45-7.64,26.16-17.06,26.16s-17.06-11.71-17.06-26.16,7.64-26.16,17.06-26.16Z"/>
      </g>
      <path d="M198.09,305.03c-14.21-10.51-33.85-10.8-48.43-.85-2.95,2.02-.16,6.86,2.82,4.82,13.11-8.95,30.05-8.58,42.79.85,2.89,2.14,5.68-2.71,2.82-4.82Z"/>
      <path d="M265.4,305.03c-14.21-10.51-33.85-10.8-48.43-.85-2.95,2.02-.16,6.86,2.82,4.82,13.11-8.95,30.05-8.58,42.79.85,2.89,2.14,5.68-2.71,2.82-4.82Z"/>
    </g>
    <g>
      <path d="M234.53,400.26c0,23.02-12.39,41.68-27.67,41.68s-27.67-18.66-27.67-41.68,11.21,0,26.49,0,28.85-23.02,28.85,0Z"/>
      <g class="cls-4">
        <path class="cls-1" d="M223.88,450.21c-2.53-17.55-8.45-30.54-15.65-32.91-6.8-2.23-15.94,5.71-17.99,24.64-.65,6.02,2.94,8.59,3.59,2.58.05-.43.12-.82.17-1.23.35,3.04,1.3,5.67,2.71,6.68,1.44,1.03,3.01-.09,4.44-.72.88-.39,1.75-.78,2.63-1.17,0,.41,0,.82.01,1.22.03,1.31.4,2.43.93,2.43.28,0,.55-.41.73-.99.08.03.16.1.25.1.88,0,1.79-1.97,1.83-4.37.9-.36,1.81-.81,2.59-1.93.19-.27.37-.59.54-.94,1.6-.47,3.19-.93,4.79-1.4.71-.21,1.33-1.17,1.64-2.69,1.37,3.83,2.46,8.33,3.18,13.29.83,5.8,4.44,3.29,3.59-2.58Z"/>
      </g>
    </g>
  </g>
  <path class="cls-3" d="M232.57,249.58c-.89-.16-1.55.01-1.98.51l-6.64-1.85c-1.18-.37-2.33-.3-3.49.07-11.35,4.54-23.51,3.21-34.58-1.29-4.49,1.11-9.01,2.15-13.56,3.15l-.59-.59c-41.36,2.2-62.93-47.08-34.18-76.28-19.5-49.72,47.02-85.54,78.01-42.24,30.85-15.94,66.28,8.56,64.17,42.89-.2,3.2-2.55,9.94-2.47,11.72.04.92,2.27,5.44,2.68,7.15,7.18,29.87-11.86,55.44-42.43,57.1-1.66.09-3.21-.53-4.94-.34Z"/>
</svg>