<?xml version="1.0" encoding="UTF-8"?>
<svg id="Bonhomme_reaction" data-name="Bonhomme reaction" xmlns="http://www.w3.org/2000/svg" xmlns:xlink="http://www.w3.org/1999/xlink" viewBox="0 0 415 553">
  <defs>
    <style>
      .cls-1 {
        fill: #e59819;
      }

      .cls-2 {
        fill: #fff;
      }

      .cls-3 {
        fill: #fcc55e;
      }

      .cls-4 {
        clip-path: url(#clippath);
      }
    </style>
    <clipPath id="clippath">
      <ellipse cx="207.4" cy="401.03" rx="12.29" ry="11.33"/>
    </clipPath>
  </defs>
  <path class="cls-3" d="M415,203.3c-55.41-17.41-126.67-27.88-204.43-27.88S56.24,186.69,0,205.28v181.4h0v166.32h415v-135.88h0v-213.82Z"/>
  <g>
    <g>
      <ellipse cx="207.4" cy="401.03" rx="12.29" ry="11.33"/>
      <g class="cls-4">
        <path class="cls-2" d="M218.17,407.63c-2.53-.74-5.65-.38-8.12.2-4.65,1.09-8.45,2.79-10.69,4.76-.45.4-.28.88.73,1.12.79.19,2.04.12,2.61-.19.19,0,.38,0,.57-.04.16-.03.32-.06.48-.09,0,0,0,0,0,0,.03,0,.05-.01.08-.02,1.76-.3,3.46-.63,5.12-1,1.24-.22,2.42-.48,3.52-.81.45-.13.89-.27,1.32-.42.67-.19,1.34-.38,2-.58.37-.12.55-.32.57-.53.09-.06.18-.13.24-.2.1-.11.15-.23.15-.35.08.14.06.28-.07.44-.8,1,3.11,1.43,3.9.43.81-1.02-.31-2.12-2.39-2.74Z"/>
      </g>
    </g>
    <g>
      <g>
        <path class="cls-2" d="M149.8,340.35c1.52-17.23,11.65-30.56,23.94-30.56s22.43,13.33,23.94,30.56c.13,1.47.22,2.95.22,4.47,0,19.35-10.82,35.04-24.16,35.04s-24.16-15.69-24.16-35.04c0-1.52.09-3.01.22-4.47Z"/>
        <path d="M173.75,318.66c3.47,0,6.69,1.6,9.38,4.32-3.42,1.67-5.78,5.17-5.78,9.23,0,5.68,4.6,10.28,10.28,10.28,1.07,0,2.1-.16,3.07-.47.06.92.1,1.84.1,2.79,0,14.45-7.64,26.16-17.06,26.16s-17.06-11.71-17.06-26.16,7.64-26.16,17.06-26.16Z"/>
      </g>
      <g>
        <path class="cls-2" d="M217.11,340.35c1.52-17.23,11.65-30.56,23.94-30.56s22.43,13.33,23.94,30.56c.13,1.47.22,2.95.22,4.47,0,19.35-10.82,35.04-24.16,35.04s-24.16-15.69-24.16-35.04c0-1.52.09-3.01.22-4.47Z"/>
        <path d="M241.05,318.66c3.47,0,6.69,1.6,9.38,4.32-3.42,1.67-5.78,5.17-5.78,9.23,0,5.68,4.6,10.28,10.28,10.28,1.07,0,2.1-.16,3.07-.47.06.92.1,1.84.1,2.79,0,14.45-7.64,26.16-17.06,26.16s-17.06-11.71-17.06-26.16,7.64-26.16,17.06-26.16Z"/>
      </g>
      <g>
        <path d="M189.38,282.72c-2.9,13.55-18.88,16.51-29.93,20.37-11.34,3.96-24.24,12.11-23.18,25.89.27,3.56,5.86,3.59,5.59,0-1.09-14.18,15.23-19.32,25.92-22.73,11.27-3.59,24.23-9.16,26.99-22.04.75-3.51-4.63-5.01-5.39-1.49Z"/>
        <path d="M225.62,282.72c2.9,13.55,18.88,16.51,29.93,20.37,11.34,3.96,24.24,12.11,23.18,25.89-.27,3.56-5.86,3.59-5.59,0,1.09-14.18-15.23-19.32-25.92-22.73-11.27-3.59-24.23-9.16-26.99-22.04-.75-3.51,4.63-5.01,5.39-1.49Z"/>
      </g>
    </g>
  </g>
  <path class="cls-1" d="M117.39,116.1s108.17-14.4,103.25,66.62c0,0-67.83.39-103.25-66.62Z"/>
  <path class="cls-1" d="M220.38,182.72s-3.7-33.31,17.52-43.41c.71-.34,1.53-.35,2.27-.07l4.78,1.79c1.08.4,1.43,1.75.68,2.62-5.23,6.1-21.62,26.39-18.61,37.8l-6.64,1.28Z"/>
</svg>