<?xml version="1.0" encoding="UTF-8"?>
<svg id="Bonhomme_reaction" data-name="Bonhomme reaction" xmlns="http://www.w3.org/2000/svg" xmlns:xlink="http://www.w3.org/1999/xlink" viewBox="0 0 415 553">
  <defs>
    <style>
      .cls-1 {
        fill: #fff;
      }

      .cls-2 {
        fill: #d93939;
      }

      .cls-3 {
        fill: #ea5658;
      }

      .cls-4 {
        clip-path: url(#clippath);
      }
    </style>
    <clipPath id="clippath">
      <ellipse cx="207.5" cy="423.02" rx="16.96" ry="38.84"/>
    </clipPath>
  </defs>
  <path class="cls-3" d="M415,203.3c-55.41-17.41-126.67-27.88-204.43-27.88S56.24,186.69,0,205.28v181.4h0v166.32h415v-135.88h0v-213.82Z"/>
  <g>
    <g>
      <g>
        <path class="cls-1" d="M150.06,341.72c1.52-17.23,11.65-30.56,23.94-30.56s22.43,13.33,23.94,30.56c.13,1.47.22,2.95.22,4.47,0,19.35-10.82,35.04-24.16,35.04s-24.16-15.69-24.16-35.04c0-1.52.09-3.01.22-4.47Z"/>
        <path d="M174.01,320.03c3.47,0,6.69,1.6,9.38,4.32-3.42,1.67-5.78,5.17-5.78,9.23,0,5.68,4.6,10.28,10.28,10.28,1.07,0,2.1-.16,3.07-.47.06.92.1,1.84.1,2.79,0,14.45-7.64,26.16-17.06,26.16s-17.06-11.71-17.06-26.16,7.64-26.16,17.06-26.16Z"/>
      </g>
      <g>
        <path class="cls-1" d="M217.37,341.72c1.52-17.23,11.65-30.56,23.94-30.56s22.43,13.33,23.94,30.56c.13,1.47.22,2.95.22,4.47,0,19.35-10.82,35.04-24.16,35.04s-24.16-15.69-24.16-35.04c0-1.52.09-3.01.22-4.47Z"/>
        <path d="M241.31,320.03c3.47,0,6.69,1.6,9.38,4.32-3.42,1.67-5.78,5.17-5.78,9.23,0,5.68,4.6,10.28,10.28,10.28,1.07,0,2.1-.16,3.07-.47.06.92.1,1.84.1,2.79,0,14.45-7.64,26.16-17.06,26.16s-17.06-11.71-17.06-26.16,7.64-26.16,17.06-26.16Z"/>
      </g>
      <g>
        <path d="M194.01,323.14c-8.67-6.57-18.25-11.91-28.49-15.59-10.13-3.64-22.17-6.83-32.02-.75-3.07,1.89-5.88-2.94-2.82-4.82,10.69-6.6,23.59-4.19,34.79-.36,11.27,3.86,21.87,9.5,31.36,16.69,2.83,2.14.05,7-2.82,4.82Z"/>
        <path d="M220.99,323.9c8.67-6.57,18.25-11.91,28.49-15.59,10.13-3.64,22.17-6.83,32.02-.75,3.07,1.89,5.88-2.94,2.82-4.82-10.69-6.6-23.59-4.19-34.79-.36-11.27,3.86-21.87,9.5-31.36,16.69-2.83,2.14-.05,7,2.82,4.82Z"/>
      </g>
    </g>
    <g>
      <ellipse cx="207.5" cy="423.02" rx="16.96" ry="38.84"/>
      <g class="cls-4">
        <path class="cls-1" d="M222.36,445.65c-3.49-2.55-7.79-1.31-11.21.69-6.42,3.75-11.67,9.55-14.77,16.31-.63,1.37-.39,3.01,1,3.82,1.09.64,2.82.42,3.6-.65.26,0,.53-.03.78-.13.22-.09.44-.2.66-.3,0,0,0,0,0,.01.03-.02.07-.04.1-.06,2.43-1.02,4.78-2.17,7.06-3.43,1.71-.76,3.34-1.66,4.86-2.77.62-.45,1.23-.93,1.82-1.43.92-.65,1.85-1.29,2.76-1.99.52-.4.76-1.11.79-1.82.12-.22.24-.43.33-.67.14-.39.2-.79.21-1.19.11.47.09.95-.09,1.51-1.1,3.43,4.29,4.9,5.39,1.49,1.12-3.48-.42-7.28-3.31-9.39Z"/>
      </g>
    </g>
  </g>
  <path class="cls-2" d="M219.14,165.21c5.45-20.71,27.83-32.46,27.83-32.46l-13.78-7.96c-21,3.83-27.37,27.98-29.22,40.05-23.72-2.41-91.57-5.21-84.72,42.94.35,2.43,2.72,4.04,5.12,3.49,6.53-1.51,19.71-4.7,34.07-8.98-5.97,10.8-7.03,25.74,2.7,46.35,1.16,2.46,4.32,3.2,6.45,1.5,9.31-7.4,31.94-26.62,41.31-45.61,9.32,19,31.79,38.26,41.06,45.69,2.13,1.71,5.29.97,6.46-1.49,10.67-22.35,8.56-38.07,1.24-49.07,17.89,5.63,35.66,9.85,43.56,11.64,2.38.54,4.75-1.05,5.1-3.47,6.44-45.33-64.07-44.19-87.16-42.62Z"/>
</svg>