<?xml version="1.0" encoding="UTF-8"?>
<svg id="Petite_Grande_faim" data-name="Petite/Grande faim" xmlns="http://www.w3.org/2000/svg" xmlns:xlink="http://www.w3.org/1999/xlink" viewBox="0 0 505 553">
  <defs>
    <style>
      .cls-1 {
        fill: #fff;
      }

      .cls-2 {
        fill: #d93939;
      }

      .cls-3 {
        fill: #ea5658;
      }

      .cls-4 {
        clip-path: url(#clippath);
      }
    </style>
    <clipPath id="clippath">
      <path d="M288.8,402.03c0,11.59-16.25,20.99-36.3,20.99s-36.3-9.4-36.3-20.99,14.71,0,34.75,0,37.85-11.59,37.85,0Z"/>
    </clipPath>
  </defs>
  <path class="cls-3" d="M505,203.3c-67.43-17.41-154.15-27.88-248.76-27.88S68.44,186.69,0,205.28v181.4h0v166.32h505v-135.88h0v-213.82Z"/>
  <path class="cls-2" d="M257.57,187.54s3.06-54.23,39.69-64.65c1.22-.35,2.54-.14,3.64.5l7.16,4.15c1.61.93,1.81,3.18.38,4.37-9.99,8.33-41.66,36.34-39.92,55.38l-10.95.25Z"/>
  <g>
    <path class="cls-1" d="M192.91,327.33c1.52-17.23,11.65-30.56,23.94-30.56s22.43,13.33,23.94,30.56c.13,1.47.22,2.95.22,4.47,0,19.35-10.82,35.04-24.16,35.04s-24.16-15.69-24.16-35.04c0-1.52.09-3.01.22-4.47Z"/>
    <path d="M216.85,305.65c3.47,0,6.69,1.6,9.38,4.32-3.42,1.67-5.78,5.17-5.78,9.23,0,5.68,4.6,10.28,10.28,10.28,1.07,0,2.1-.16,3.07-.47.06.92.1,1.84.1,2.79,0,14.45-7.64,26.16-17.06,26.16s-17.06-11.71-17.06-26.16,7.64-26.16,17.06-26.16Z"/>
  </g>
  <g>
    <path class="cls-1" d="M260.22,327.33c1.52-17.23,11.65-30.56,23.94-30.56s22.43,13.33,23.94,30.56c.13,1.47.22,2.95.22,4.47,0,19.35-10.82,35.04-24.16,35.04s-24.16-15.69-24.16-35.04c0-1.52.09-3.01.22-4.47Z"/>
    <path d="M284.16,305.65c3.47,0,6.69,1.6,9.38,4.32-3.42,1.67-5.78,5.17-5.78,9.23,0,5.68,4.6,10.28,10.28,10.28,1.07,0,2.1-.16,3.07-.47.06.92.1,1.84.1,2.79,0,14.45-7.64,26.16-17.06,26.16s-17.06-11.71-17.06-26.16,7.64-26.16,17.06-26.16Z"/>
  </g>
  <g>
    <path d="M210.39,271.55c-1.64-.45-3,.56-3.57,2.03-2.46,6.34-5.27,12.56-8.52,18.53-.98,1.8-2.27,4.24-4.37,4.02-2.6-.27-4.24-3.17-5.49-5.19-1.96-3.17-6.98-.26-5.01,2.93,2.07,3.34,4.56,6.77,8.6,7.79,4.17,1.05,7.64-1.13,9.97-4.45,2.21-3.14,3.78-6.87,5.41-10.34,1.81-3.85,3.47-7.78,5.01-11.75.57-1.46-.62-3.18-2.03-3.57Z"/>
    <path d="M291.43,271.55c1.64-.45,3,.56,3.57,2.03,2.46,6.34,5.27,12.56,8.52,18.53.98,1.8,2.27,4.24,4.37,4.02,2.6-.27,4.24-3.17,5.49-5.19,1.96-3.17,6.98-.26,5.01,2.93-2.07,3.34-4.56,6.77-8.6,7.79-4.17,1.05-7.64-1.13-9.97-4.45-2.21-3.14-3.78-6.87-5.41-10.34-1.81-3.85-3.47-7.78-5.01-11.75-.57-1.46.62-3.18,2.03-3.57Z"/>
  </g>
  <g>
    <path d="M288.8,402.03c0,11.59-16.25,20.99-36.3,20.99s-36.3-9.4-36.3-20.99,14.71,0,34.75,0,37.85-11.59,37.85,0Z"/>
    <g class="cls-4">
      <path class="cls-1" d="M274.84,427.19c-3.31-8.84-11.09-15.38-20.53-16.57-8.92-1.13-20.91,2.87-23.61,12.41-.86,3.03,3.86,4.33,4.71,1.3.06-.22.15-.41.23-.62.46,1.53,1.7,2.86,3.56,3.36,1.89.52,3.95-.04,5.83-.36,1.15-.2,2.3-.39,3.44-.59.01.21,0,.41.02.62.04.66.53,1.22,1.22,1.22.37,0,.72-.21.96-.5.11.02.21.05.33.05,1.15,0,2.34-.99,2.4-2.2,1.18-.18,2.38-.41,3.4-.97.25-.14.48-.3.71-.48,2.1-.24,4.19-.47,6.29-.7.93-.1,1.74-.59,2.16-1.36,1.8,1.93,3.23,4.2,4.17,6.69,1.09,2.92,5.82,1.65,4.71-1.3Z"/>
    </g>
  </g>
</svg>