<?xml version="1.0" encoding="UTF-8"?>
<svg id="Petite_Grande_faim" data-name="Petite/Grande faim" xmlns="http://www.w3.org/2000/svg" xmlns:xlink="http://www.w3.org/1999/xlink" viewBox="0 0 505 553">
  <defs>
    <style>
      .cls-1 {
        fill: #fff;
      }

      .cls-2 {
        fill: #7ac298;
      }

      .cls-3 {
        fill: #42a883;
      }

      .cls-4 {
        clip-path: url(#clippath);
      }
    </style>
    <clipPath id="clippath">
      <path d="M362.13,413.91c0,67.97-49.3,123.07-110.11,123.07s-110.11-55.1-110.11-123.07,44.6,0,105.41,0,114.8-67.97,114.8,0Z"/>
    </clipPath>
  </defs>
  <path class="cls-2" d="M505,203.3c-67.43-17.41-154.15-27.88-248.76-27.88S68.44,186.69,0,205.28v181.4h0v166.32h505v-135.88h0v-213.82Z"/>
  <g>
    <path class="cls-1" d="M192.91,327.33c1.52-17.23,11.65-30.56,23.94-30.56s22.43,13.33,23.94,30.56c.13,1.47.22,2.95.22,4.47,0,19.35-10.82,35.04-24.16,35.04s-24.16-15.69-24.16-35.04c0-1.52.09-3.01.22-4.47Z"/>
    <path d="M216.85,305.65c3.47,0,6.69,1.6,9.38,4.32-3.42,1.67-5.78,5.17-5.78,9.23,0,5.68,4.6,10.28,10.28,10.28,1.07,0,2.1-.16,3.07-.47.06.92.1,1.84.1,2.79,0,14.45-7.64,26.16-17.06,26.16s-17.06-11.71-17.06-26.16,7.64-26.16,17.06-26.16Z"/>
  </g>
  <g>
    <path class="cls-1" d="M260.22,327.33c1.52-17.23,11.65-30.56,23.94-30.56s22.43,13.33,23.94,30.56c.13,1.47.22,2.95.22,4.47,0,19.35-10.82,35.04-24.16,35.04s-24.16-15.69-24.16-35.04c0-1.52.09-3.01.22-4.47Z"/>
    <path d="M284.16,305.65c3.47,0,6.69,1.6,9.38,4.32-3.42,1.67-5.78,5.17-5.78,9.23,0,5.68,4.6,10.28,10.28,10.28,1.07,0,2.1-.16,3.07-.47.06.92.1,1.84.1,2.79,0,14.45-7.64,26.16-17.06,26.16s-17.06-11.71-17.06-26.16,7.64-26.16,17.06-26.16Z"/>
  </g>
  <g>
    <path d="M362.13,413.91c0,67.97-49.3,123.07-110.11,123.07s-110.11-55.1-110.11-123.07,44.6,0,105.41,0,114.8-67.97,114.8,0Z"/>
    <g class="cls-4">
      <path class="cls-1" d="M319.76,561.39c-10.05-51.82-33.62-90.17-62.27-97.16-27.05-6.6-63.43,16.85-71.59,72.74-2.6,17.78,11.7,25.37,14.29,7.62.18-1.26.46-2.42.69-3.63,1.4,8.96,5.16,16.75,10.79,19.71,5.75,3.03,11.99-.26,17.69-2.14,3.48-1.15,6.97-2.3,10.45-3.44.03,1.21.02,2.41.06,3.61.13,3.86,1.61,7.16,3.71,7.16,1.12,0,2.2-1.21,2.91-2.93.34.09.65.29,1.01.29,3.49,0,7.11-5.81,7.29-12.89,3.59-1.05,7.2-2.39,10.3-5.7.75-.8,1.46-1.75,2.14-2.79,6.35-1.38,12.71-2.75,19.07-4.13,2.81-.61,5.29-3.44,6.54-7.95,5.45,11.31,9.81,24.6,12.65,39.24,3.32,17.11,17.65,9.7,14.29-7.62Z"/>
    </g>
  </g>
  <g>
    <path class="cls-3" d="M115.39,182.37s113.54-95.3,166.91,1.17c0,0-77.49,49.86-166.91-1.17Z"/>
    <path class="cls-3" d="M382.51,282.13s-16.41-147.33-121.62-114.33c0,0,21.68,89.56,121.62,114.33Z"/>
  </g>
  <g>
    <path d="M236.42,304.31c-8.84-6.7-18.62-12.14-29.06-15.9-10.33-3.71-22.61-6.96-32.66-.76-3.13,1.93-6-3-2.88-4.92,10.9-6.73,24.06-4.27,35.48-.36,11.49,3.93,22.3,9.69,31.99,17.02,2.89,2.19.05,7.14-2.88,4.92Z"/>
    <path d="M263.94,305.09c8.84-6.7,18.62-12.14,29.06-15.9,10.33-3.71,22.61-6.96,32.66-.76,3.13,1.93,6-3,2.88-4.92-10.9-6.73-24.06-4.27-35.48-.36-11.49,3.93-22.3,9.69-31.99,17.02-2.89,2.19-.05,7.14,2.88,4.92Z"/>
  </g>
</svg>